<svg xmlns="http://www.w3.org/2000/svg" viewBox="0 0 60 60" fill="none">
  <!-- Fondo circular -->
  <circle cx="30" cy="30" r="28" fill="#1f2937" stroke="#374151" stroke-width="2"/>
  
  <!-- Cáliz -->
  <path d="M20 25 L40 25 L38 35 C38 38.5 35 41 30 41 C25 41 22 38.5 22 35 L20 25 Z" 
        fill="#fbbf24" stroke="#f59e0b" stroke-width="1"/>
  
  <!-- Base del cáliz -->
  <rect x="27" y="41" width="6" height="4" fill="#fbbf24"/>
  <ellipse cx="30" cy="45" rx="8" ry="2" fill="#fbbf24"/>
  
  <!-- Hostia -->
  <circle cx="30" cy="20" r="6" fill="#fef3c7" stroke="#f59e0b" stroke-width="1"/>
  
  <!-- Cruz en la hostia -->
  <path d="M30 17 L30 23 M27 20 L33 20" stroke="#f59e0b" stroke-width="1.5" stroke-linecap="round"/>
  
  <!-- Rayos de luz -->
  <path d="M30 8 L30 12 M42 18 L38 20 M42 42 L38 40 M18 18 L22 20 M18 42 L22 40" 
        stroke="#fbbf24" stroke-width="1.5" stroke-linecap="round" opacity="0.7"/>
</svg>